PathFileType	4	(X/Y/Z)	C:\Users\WrightLab\Desktop\Jo\P5V124.trc
DataRate	CameraRate	NumFrames	NumMarkers	Units	OrigDataRate	OrigDataStartFrame	OrigNumFrames
100.00	100.00	       14	19	mm	100.00	391	       624
Frame#	Time	Headset_Front			Headset_Back			Headset_Left			Headset_Right			Left_Shoulder			Right_Shoulder			Sternum			C7			Left Elbow			Right Elbow			Left Wrist			Right Wrist			Left ASIS			Right ASIS			S2			Left Knee			Right Knee			Left Ankle			Right Ankle			
		X1	Y1	Z1	X2	Y2	Z2	X3	Y3	Z3	X4	Y4	Z4	X5	Y5	Z5	X6	Y6	Z6	X7	Y7	Z7	X8	Y8	Z8	X9	Y9	Z9	X10	Y10	Z10	X11	Y11	Z11	X12	Y12	Z12	X13	Y13	Z13	X14	Y14	Z14	X15	Y15	Z15	X16	Y16	Z16	X17	Y17	Z17	X18	Y18	Z18	X19	Y19	Z19	

391	3.900													-410.61514	1496.88892	871.50610	-690.08136	1507.08252	568.53357	-646.09650	1362.88538	774.17914	-460.31381	1538.54236	636.59918	-360.78983	1207.28662	909.90833	-687.35236	1246.22314	421.69125	-416.86343	979.37988	996.61896	-805.20276	1048.52136	524.10168	-593.26025	958.66589	880.39972	-756.93677	1000.43933	640.01215	-421.31296	983.16522	628.31824	-546.93231	514.24310	862.51404	-785.21643	530.92792	632.11340	-526.79474	103.78328	697.65637	-496.09146	273.03632	449.17233	
392	3.910													-414.44507	1497.03247	876.11792	-697.50018	1507.34058	576.14319	-650.46558	1362.89514	780.76538	-465.92273	1538.41687	642.21399	-365.64255	1207.84985	913.78308	-695.97565	1246.78699	428.69568	-422.95343	980.82172	1002.24573	-812.74255	1049.20825	532.41522	-596.14734	959.05829	886.83020	-766.78082	1002.53668	649.50989	-428.12097	982.99548	631.01489	-546.45636	513.92505	867.97815	-802.20538	539.04553	647.46875	-527.04413	104.43223	697.98590	-515.46045	271.74731	459.52206	
393	3.920	-502.50439	1786.44458	695.70367										-418.77737	1497.79846	880.31268	-704.76379	1507.32690	583.79755	-656.04370	1363.38208	788.13202	-473.57101	1539.49243	647.13580	-370.50885	1208.88623	918.10687	-704.38318	1247.72998	435.56598	-428.76031	982.19043	1007.89685	-819.91046	1049.92725	540.26001	-599.01001	959.18945	892.97894	-774.22772	1002.58875	657.93140	-435.28430	983.08844	633.92047	-546.26178	513.46173	873.63983	-815.28253	544.67108	665.10669	-527.47974	104.67065	698.22327	-535.12537	268.73431	470.79620	
394	3.930	-508.83231	1786.59473	701.34631										-423.03537	1498.51880	884.89978	-712.02338	1507.40759	591.39923	-660.06824	1363.37463	794.61047	-480.58786	1540.46106	651.29144	-374.99573	1209.11865	923.71930	-712.95819	1247.72510	442.61093	-434.51776	982.94751	1012.82397	-826.97119	1049.85803	548.05457	-601.18164	958.80487	898.71875	-782.57550	1003.84528	667.10864	-440.75296	983.74567	636.25903	-545.45801	512.21228	878.81299	-828.63397	551.79034	681.08661	-527.38959	106.04790	698.20453	-555.77875	265.42523	482.28693	
395	3.940													-428.10159	1498.76489	889.42682	-719.24896	1507.38086	599.16107	-664.59918	1363.04480	801.53015	-486.63950	1540.48022	656.66632	-380.26495	1209.81775	927.83954	-721.79700	1248.50793	449.67731	-440.49112	984.77563	1018.34479	-836.12463	1050.90625	557.22650	-603.53699	958.57361	904.19348	-789.08521	1003.45837	675.84656	-447.30191	984.02435	638.16901	-544.94635	511.28094	884.11920	-840.89978	558.93024	697.39929	-527.41754	106.04105	698.20007	-575.91119	260.84650	494.14700	
396	3.950	-666.78802	1657.25122	968.56140										-431.76151	1499.42102	893.59485	-726.65057	1507.33875	607.04742	-668.84418	1362.82690	808.51215	-493.76495	1541.30896	661.56689	-384.67563	1209.58838	932.26599	-730.93506	1249.03870	457.44385	-445.27347	985.54626	1022.74731	-843.19519	1050.98157	565.44482	-606.23492	958.46149	909.75946	-794.95984	1003.32416	684.62024	-452.29932	984.52240	640.33429	-544.46735	510.27499	890.09131	-851.48700	565.33990	713.55719	-527.24713	106.52615	698.53247	-596.27417	255.71635	505.59256	
397	3.960	-670.63086	1656.74353	975.38068	-527.60840	1787.25928	718.80127							-435.87112	1499.77283	897.93018	-733.80237	1507.28894	614.75806	-673.00446	1362.65857	815.19116	-500.28561	1541.83777	666.25787	-388.41776	1210.53613	936.23706	-739.52130	1249.09534	464.47687	-451.06213	986.83936	1028.90930	-850.36749	1050.85193	574.22827	-608.53784	958.10474	915.01855	-801.82861	1003.76617	693.77258	-459.78503	985.01837	643.04498	-544.20520	509.96106	895.02991	-861.26147	571.69476	728.48755	-527.73010	106.89294	698.65356	-617.60773	249.91861	518.94391	
398	3.970	-674.84753	1656.33386	982.39343	-533.93634	1787.09937	724.88708							-439.10803	1499.75269	901.96875	-741.13989	1507.09766	622.82776	-678.01031	1362.52869	822.53284	-506.83484	1542.12061	671.99225	-393.10675	1210.43042	941.30096	-748.64581	1249.30530	472.33667	-456.04477	987.96521	1033.79346	-857.21698	1050.35571	582.80219	-611.08051	957.62036	920.36029	-806.04211	1002.45532	702.14008	-464.99957	985.18286	646.39441	-545.64825	510.08789	899.40320	-869.54614	577.01440	742.55115	-527.87726	107.70010	699.48120	-638.43079	243.36430	531.59418	
399	3.980	-678.52515	1655.64880	989.38898	-541.10669	1787.87610	731.23035							-442.99829	1500.04126	906.29791	-748.29767	1507.16370	630.72675	-681.91754	1361.78284	829.28540	-513.83545	1542.35681	676.50256	-397.59351	1211.05298	945.30615	-756.98615	1249.18103	480.21906	-461.67828	989.19543	1038.79382	-863.86560	1049.90613	591.32587	-613.00995	957.08698	925.64490	-812.20148	1002.92560	711.58966	-471.33081	985.26440	648.25488	-547.14642	509.76389	903.40027	-877.58228	581.42450	757.03943	-528.77252	107.40082	699.58008	-659.97363	235.96198	545.15106	
400	3.990	-682.33508	1654.89038	996.36713	-548.04980	1787.91968	737.83099							-447.93527	1500.32593	910.70972	-755.20935	1506.63147	638.84058	-686.45325	1361.75769	836.27936	-520.66498	1542.25049	681.57813	-401.32913	1211.40735	949.44324	-766.17383	1249.39844	487.81595	-466.17047	990.24506	1043.57751	-871.18890	1049.79431	600.32019	-614.13940	955.84515	930.33972	-815.90875	1001.64111	720.35333	-475.71075	985.60077	650.31970	-548.80627	509.21384	906.25482	-884.04126	585.17511	770.59595	-528.87891	108.37166	699.47717	-680.94794	227.96910	559.23267	
401	4.000	-686.31012	1654.01685	1003.52252	-554.78430	1788.73010	744.41602							-451.68216	1500.56860	915.09961	-762.27759	1506.47083	646.89008	-690.75354	1361.55164	843.43622	-524.93500	1541.93835	688.99561	-405.09946	1210.84705	953.28711	-774.73187	1249.20911	496.52676	-470.72519	990.61676	1048.46521	-878.43518	1049.44897	609.37598	-616.46814	955.67987	935.61542	-820.14178	1000.60968	729.37457	-482.37030	986.36267	652.35718	-550.54364	508.21515	908.30859	-890.22638	588.32813	783.86218	-529.46045	109.55889	699.91315	-703.16376	219.71823	574.98444	
402	4.010	-690.20361	1653.01172	1010.64587	-559.60773	1787.88794	750.63306							-455.03607	1500.25916	919.18726	-769.47308	1506.00488	655.23340	-694.79761	1360.73401	850.48315	-533.80756	1544.29248	686.05573	-408.88895	1212.02734	957.70380	-783.37445	1249.11499	504.07516	-474.85709	991.17438	1053.56921	-885.81226	1049.14233	618.74561	-617.46143	954.46027	940.19092	-825.06958	1000.34845	738.90747	-487.31189	986.27887	654.73212	-552.42090	506.95071	910.40454	-895.16327	590.36609	796.90363	-529.73322	109.97613	699.83978	-724.93665	211.36295	590.87500	
403	4.020	-694.11945	1651.97400	1017.90875	-565.75629	1788.10095	757.31903							-459.51688	1499.32349	920.15497	-776.59735	1505.78552	663.51154	-698.92505	1360.19690	857.78864				-411.53348	1210.99548	960.54736	-791.99280	1248.85779	512.63873	-479.39963	992.14490	1058.30566	-892.65979	1048.67627	627.97705	-619.23932	953.88013	944.99329	-828.84192	999.44202	747.96082	-493.26437	988.16296	657.15283	-553.93005	505.71063	911.71387	-899.34497	591.81281	809.52344	-529.99615	111.23637	700.30707	-746.68457	202.15225	608.06470	
404	4.030	-697.69073	1650.69397	1025.21204	-546.85266	1544.68860	695.54865							-462.68921	1500.06323	925.18066	-783.55023	1505.05945	671.97089	-703.07990	1359.78748	865.14490				-415.43854	1210.70679	964.78015	-801.13367	1248.67261	520.74500	-483.50143	992.56287	1062.73035	-899.54053	1048.00940	637.54254	-621.63098	953.98914	949.75446	-831.59717	997.62860	756.39948	-498.82935	988.56256	659.96112	-555.90265	505.15643	914.11383	-902.47607	592.48602	821.38074	-530.26801	111.39674	700.65839	-768.00458	192.71710	626.03925	
